<svg width="126" height="32" viewBox="0 0 126 32" fill="none" xmlns="http://www.w3.org/2000/svg">
<g clip-path="url(#clip0_2069_4482)">
<path d="M26.8902 0L25.4864 8.05055H24.6495C22.159 8.05055 20.0277 9.82171 19.5938 12.2519L19.4589 13.0102H14.3704L13.5955 17.3577H18.684L17.8016 22.3191H12.8535L11.3803 30.5953H6.2663L7.73944 22.3191H0L0.882423 17.3577H8.39396L9.16699 13.0102H1.65728L2.5397 8.05236H10.0512L11.4843 0H16.6858L15.2528 8.05236H20.3942H20.3413L21.7743 0H26.8902Z" fill="#90E39A"/>
<path d="M96.0854 14.4917C96.1637 14.4917 96.1455 14.4917 96.2203 14.4917C97.6186 14.4953 100.744 14.4917 100.966 14.4917C100.864 15.0676 100.762 15.6237 100.663 16.178C100.328 18.0521 99.9924 19.9261 99.6551 21.8002C99.3981 23.2301 99.1355 24.6583 98.8766 26.0882C98.7472 26.8031 98.6214 27.4206 98.5047 28.2349C98.4901 28.4606 98.5922 30.5314 98.5922 30.5766C97.1556 30.573 94.9914 30.573 93.5566 30.5766C93.5475 30.4664 93.4362 29.533 93.4125 29.2947C93.356 29.3272 93.3469 29.329 93.2995 29.3615C91.9303 30.2516 90.3678 30.9647 88.7033 30.8871C86.4389 30.7806 84.6266 29.8399 83.4051 27.8918C82.6776 26.7309 82.3768 25.4545 82.2875 24.1058C82.2218 23.1236 82.3057 22.1595 82.5354 21.2062C82.8581 19.8611 83.4999 18.6677 84.3786 17.6025C85.7989 15.8819 87.6021 14.7535 89.7935 14.2534C91.3268 13.9031 92.8656 13.8508 94.3734 14.3744C94.8675 14.5459 95.3178 14.8365 95.7863 15.0767C95.8246 15.0965 95.9267 15.1579 95.9668 15.1868C95.9942 15.0731 96.0471 14.7354 96.0872 14.4953L96.0854 14.4917ZM90.6048 26.8862C91.8355 26.8663 92.9203 26.4655 93.8355 25.644C93.872 25.6115 93.8975 25.5881 93.9504 25.5321C93.965 25.4671 93.9704 25.422 93.9796 25.375C94.3333 23.4161 94.6815 21.4554 95.0224 19.4928C95.0315 19.4423 95.0133 19.5434 95.0589 19.2653C95.0407 19.2419 95.0005 19.2076 94.9696 19.1805C94.6687 18.9187 94.3716 18.6316 94.0233 18.4511C93.0844 17.9654 92.078 17.8914 91.0442 18.0918C89.2703 18.4366 88.0232 19.4116 87.3833 21.1033C87.1681 21.6738 87.1153 22.2714 87.0824 22.8781C87.046 23.5786 87.0916 24.2647 87.3669 24.911C87.9229 26.2182 89.0478 26.8826 90.6048 26.8862ZM96.0689 15.1597C96.0999 15.1814 95.9377 15.1796 95.965 15.1814C95.9869 15.0568 96.0179 14.8853 96.0416 14.7445C96.0708 14.5748 96.0671 14.5964 96.0854 14.4899M37.4662 26.8483C36.8627 26.693 36.5746 26.173 36.6312 25.4942L36.839 24.3261L39.736 8.05162H39.7342V8.0444C39.7342 8.0444 39.7251 8.04982 39.7215 8.05162H34.859L32.983 18.5829C32.8863 19.1155 32.7897 19.6481 32.6949 20.1807C32.4214 21.7045 32.1516 23.2283 31.8799 24.7521C31.8599 24.8641 31.8453 24.976 31.8252 25.0862L31.7559 25.4743L31.7596 25.4797C31.6575 26.09 31.5736 26.702 31.6046 27.3285C31.6812 28.8343 32.6675 30.1342 34.2081 30.6163C35.3804 30.9828 36.571 30.9395 37.7597 30.7011C37.8108 30.6867 37.8892 30.6704 37.9457 30.6578C37.9676 30.5314 37.9694 30.5224 37.9767 30.4863C38.2155 29.1864 38.4051 28.1211 38.6221 26.8988C38.5327 26.9061 38.478 26.9151 38.4252 26.9133C38.1025 26.8988 37.767 26.9313 37.4625 26.8537L37.4662 26.8483ZM32.5509 13.0094L33.4333 8.04982H24.6492C22.1587 8.04982 20.0274 9.82098 19.5935 12.2511L19.4585 13.0094L18.6837 17.357L17.8013 22.3184L16.3281 30.5928H21.5315L23.0046 22.3166H30.8936L31.776 17.357H23.8889L24.6619 13.0094H32.5509ZM56.9251 21.7316C56.9451 24.0823 56.2158 26.0539 54.7555 27.7438C53.4191 29.2893 51.7035 30.2353 49.7162 30.7282C48.6387 30.9954 47.5429 31.0568 46.4454 30.9846C44.4052 30.8528 42.5711 30.183 41.1107 28.7205C39.9949 27.603 39.3732 26.2254 39.1544 24.6691C38.9703 23.3637 39.0651 22.0764 39.4243 20.8108C39.798 19.4946 40.4434 18.3211 41.3587 17.2956C42.5529 15.9614 44.0278 15.0514 45.738 14.5152C46.5201 14.2696 47.3242 14.1487 48.1464 14.0945C49.2166 14.0259 50.2704 14.1053 51.2987 14.3834C53.3662 14.9395 54.9688 16.1184 56.008 17.9961C56.6716 19.1931 56.9524 20.4894 56.9232 21.7334L56.9251 21.7316ZM51.8603 21.914C51.8603 21.3434 51.8603 21.0022 51.7381 20.5508C51.4737 19.5723 50.6861 18.7743 49.7709 18.5486C49.2294 18.3879 48.6733 18.3644 48.1045 18.4294C46.7626 18.5829 45.7362 19.2491 45.0105 20.3378C44.2083 21.5402 44.0224 22.8961 44.2648 24.299C44.4709 25.4852 45.1454 26.285 46.3652 26.5684C46.9686 26.7093 47.5794 26.7075 48.1865 26.6082C49.4591 26.3987 50.4309 25.7361 51.1073 24.6528C51.6305 23.8151 51.8293 22.8943 51.8584 21.9122L51.8603 21.914ZM113.411 25.7614C112.751 29.4662 109.218 31.0586 105.706 31.0424C103.041 31.0315 100.456 29.6269 99.5585 28.7585C100.441 27.8196 101.475 26.5594 102.569 25.366C103.32 25.9654 104.895 26.9927 106.326 26.9927C107.497 26.9927 108.293 26.3734 108.408 25.7289C108.724 23.9577 100.558 24.8912 101.549 19.3195C102.175 15.8097 105.482 14.0385 108.864 14.0385C111.077 14.0385 112.436 14.6091 114.381 16.0173C112.706 18.1153 112.098 18.8591 111.741 19.361C110.6 18.7544 109.296 18.0936 108.224 18.0936C107.378 18.0936 106.751 18.4384 106.58 19.1913C106.164 21.0094 114.47 19.8034 113.411 25.7614ZM123.712 26.6082C121.811 26.693 120.786 26.498 121.016 25.2053L122.071 19.1263H125.07L125.913 14.4881H122.897L123.699 9.97986L118.563 11.4296L118.018 14.4881H115.417L114.591 19.1263H117.192L116.177 24.8262C115.393 29.2333 116.857 31.1308 122.985 30.6127L123.712 26.6063V26.6082ZM82.0814 17.2468C82.003 15.9144 81.7259 14.6361 81.1698 13.4175C80.0303 10.9241 78.1506 9.22698 75.5599 8.29355C73.4997 7.55151 71.3757 7.47388 69.2316 7.77178C67.8095 7.97038 66.4531 8.41633 65.175 9.06449C62.803 10.2669 60.9124 11.9893 59.5632 14.2787C58.1703 16.642 57.6088 19.1841 57.8531 21.9067C57.988 23.4089 58.3964 24.8262 59.1585 26.1405C60.0318 27.6463 61.2515 28.8054 62.772 29.6504C64.5332 30.6271 66.4494 31.0045 68.7612 31.0333C69.2188 30.9954 69.9955 30.972 70.7558 30.8564C71.7713 30.7029 72.7485 30.4249 73.6911 30.0458L74.3402 30.8871H74.3529C75.3739 32.1473 77.2245 32.373 78.5153 31.3764C78.5207 31.371 78.5226 31.3655 78.5299 31.3601H78.5353L80.5171 29.8598L78.322 27.0198C79.2099 26.1297 79.9665 25.1096 80.5882 23.9577C81.7241 21.8616 82.2163 19.6264 82.0778 17.2486L82.0814 17.2468ZM74.6702 22.2877H74.6574C74.6465 22.2732 74.6465 22.257 74.6355 22.2444C73.62 20.9553 71.7421 20.7242 70.4404 21.728C70.4349 21.7316 70.4331 21.7388 70.4276 21.7424H70.4221L68.4385 23.2446L70.5735 26.0087C70.537 26.016 70.5005 26.025 70.4622 26.0322C69.1058 26.2796 67.7566 26.238 66.4676 25.6946C64.8085 24.9941 63.8131 23.7321 63.4193 22.0078C63.3008 21.4897 63.2132 21.0889 63.2132 20.4208C63.2461 18.545 63.8441 16.8803 65.0364 15.4468C66.289 13.941 67.877 12.939 69.8369 12.596C71.2207 12.354 72.5936 12.4046 73.8862 13.0239C75.4086 13.7533 76.3657 14.972 76.7267 16.5933C77.2573 18.9765 76.7632 21.1611 75.2773 23.0731L74.6702 22.2877Z" fill="white"/>
</g>
<defs>
<clipPath id="clip0_2069_4482">
<rect width="125.913" height="32" fill="white"/>
</clipPath>
</defs>
</svg>
